<svg width="185" height="188" viewBox="0 0 185 188" fill="none" xmlns="http://www.w3.org/2000/svg">
<circle cx="95" cy="98" r="90" fill="url(#paint0_linear_185_2488)"/>
<path d="M34 104.668L57.0056 153.389H34V104.668Z" fill="#E6E9F2"/>
<path d="M34 93.8799L62.099 153.389H57.0056L34 104.668V93.8799Z" fill="#E6E9F2"/>
<path d="M34 83.0957L67.1914 153.389H62.099L34 93.8801V83.0957Z" fill="#E6E9F2"/>
<path d="M34 72.311L72.2839 153.39H67.1914L34 83.0954V72.311Z" fill="#E6E9F2"/>
<path d="M36.9213 67.7119L77.3772 153.389H72.2839L34 72.3112V67.7119H36.9213Z" fill="#E6E9F2"/>
<path d="M42.0138 67.7119L82.4697 153.389H77.3773L36.9214 67.7119H42.0138Z" fill="#E6E9F2"/>
<path d="M47.1061 67.7119L87.562 153.389H82.4696L42.0137 67.7119H47.1061Z" fill="#E6E9F2"/>
<path d="M52.1988 67.7119L92.651 153.389H87.5622L47.1063 67.7119H52.1988Z" fill="#E6E9F2"/>
<path d="M57.292 67.7119L97.7479 153.389H92.6555L52.1996 67.7119H57.292Z" fill="#E6E9F2"/>
<path d="M62.3844 67.7119L102.84 153.389H97.7497L57.292 67.7119H62.3844Z" fill="#E6E9F2"/>
<path d="M67.4768 67.7119L107.933 153.389H102.84L62.3844 67.7119H67.4768Z" fill="#E6E9F2"/>
<path d="M72.5703 67.7119L113.026 153.389H107.934L67.4779 67.7119H72.5703Z" fill="#E6E9F2"/>
<path d="M77.6628 67.7119L118.119 153.389H113.026L72.5703 67.7119H77.6628Z" fill="#E6E9F2"/>
<path d="M82.7552 67.7119L123.211 153.389H118.119L77.6627 67.7119H82.7552Z" fill="#E6E9F2"/>
<path d="M87.8522 67.7119L128.308 153.389H123.216L82.7561 67.7119H87.8522Z" fill="#E6E9F2"/>
<path d="M92.941 67.7119L133.397 153.389H128.304L87.8485 67.7119H92.941Z" fill="#E6E9F2"/>
<path d="M98.0334 67.7119L138.489 153.389H133.397L92.9409 67.7119H98.0334Z" fill="#E6E9F2"/>
<path d="M103.127 67.7119L143.579 153.389H138.487L98.0343 67.7119H103.127Z" fill="#E6E9F2"/>
<path d="M108.219 67.7119L148.671 153.389H143.582L103.127 67.7119H108.219Z" fill="#E6E9F2"/>
<path d="M113.313 67.7119L153.768 153.389H148.672L108.22 67.7119H113.313Z" fill="#E6E9F2"/>
<path d="M118.405 67.7119L156.332 148.037V153.389H153.77L113.312 67.7119H118.405Z" fill="#E6E9F2"/>
<path d="M123.497 67.7119L156.331 137.253V148.037L118.405 67.7119H123.497Z" fill="#E6E9F2"/>
<path d="M128.591 67.7119L156.332 126.465V137.253L123.498 67.7119H128.591Z" fill="#E6E9F2"/>
<path d="M133.683 67.7119L156.331 115.679V126.464L128.591 67.7119H133.683Z" fill="#E6E9F2"/>
<path d="M138.779 67.7119L156.335 104.895V115.679L133.683 67.7119H138.779Z" fill="#E6E9F2"/>
<path d="M143.869 67.7119L156.332 94.1069V104.895L138.777 67.7119H143.869Z" fill="#E6E9F2"/>
<path d="M148.961 67.7119L156.331 83.3226V94.1069L143.869 67.7119H148.961Z" fill="#E6E9F2"/>
<path d="M156.331 83.3226L148.962 67.7119H156.331V83.3226Z" fill="#E6E9F2"/>
<path d="M34.1886 67.7119L94.974 117.274L156.147 67.7119" fill="#D4D9E4"/>
<path d="M34 153.198L94.9775 104.211L156.332 153.198H34Z" fill="#E2E4EE"/>
<path d="M34.3198 67.6929C34.3196 67.6933 34.3201 67.6937 34.3205 67.6934L97.2045 23.0243C97.2257 23.0085 97.2514 23 97.2776 23C97.304 23 97.3296 23.0085 97.3508 23.0243L156.469 67.6952C156.489 67.7114 156.504 67.7337 156.512 67.7588C156.519 67.784 156.519 67.8109 156.51 67.8358C156.502 67.8607 156.487 67.8823 156.466 67.8978C156.445 67.9133 156.42 67.9218 156.394 67.9222H34.3916C34.3652 67.9221 34.3396 67.9134 34.3184 67.8974C34.2971 67.8815 34.2814 67.8591 34.2735 67.8334C34.2655 67.8077 34.2658 67.7802 34.2742 67.7547C34.2824 67.7296 34.2981 67.7079 34.319 67.6924C34.3194 67.6921 34.3199 67.6925 34.3198 67.6929Z" fill="#D4D9E4"/>
<path d="M110.382 49H78.3715C66.7604 49 60 55.7986 60 67.4479V106.903C60 118.743 66.7604 125.389 78.3715 125.389H110.382C122.181 125.389 128.75 118.743 128.75 106.903V67.4479C128.75 55.7986 122.181 49 110.382 49Z" fill="white"/>
<rect x="71" y="61" width="46" height="3" rx="1.5" fill="#4D6EFD"/>
<rect x="71" y="77" width="35.2667" height="3" rx="1.5" fill="#4D6EFD"/>
<rect x="71" y="93" width="46" height="3" rx="1.5" fill="#4D6EFD"/>
<rect x="71" y="109" width="36.8" height="3" rx="1.5" fill="#4D6EFD"/>
<path d="M34.5 68.5V152.5H156.5L34.5 68.5Z" fill="#E2E4EE"/>
<path d="M156.5 153.5V68L34.5 153.5H156.5Z" fill="#E6E9F2"/>
<circle cx="179" cy="118" r="6" fill="#E7EBF6"/>
<circle cx="5" cy="68" r="5" fill="#E7EBF6"/>
<circle cx="66" cy="12" r="4" fill="#E7EBF6"/>
<circle cx="62.5" cy="2.5" r="2.5" fill="#E7EBF6"/>
<defs>
<linearGradient id="paint0_linear_185_2488" x1="95" y1="8" x2="95" y2="188" gradientUnits="userSpaceOnUse">
<stop stop-color="#FBFDFE" stop-opacity="0.34"/>
<stop offset="1" stop-color="#F1F6FB"/>
</linearGradient>
</defs>
</svg>
