<svg width="72" height="72" viewBox="0 0 72 72" fill="none" xmlns="http://www.w3.org/2000/svg">
<circle cx="36" cy="36" r="36" fill="#4D6EFD"/>
<mask id="mask0_33439_4515" style="mask-type:alpha" maskUnits="userSpaceOnUse" x="0" y="0" width="72" height="72">
<circle cx="36" cy="36" r="36" fill="#F5F7FB"/>
</mask>
<g mask="url(#mask0_33439_4515)">
<g opacity="0.1">
<path d="M52.4021 82.4252C49.0291 67.1968 34.4706 43.2048 3.22008 69.0644" stroke="#F5F7FB" stroke-width="1.5" stroke-linecap="round"/>
<path d="M47.5635 87.1179C44.7507 73.1274 31.8628 50.9201 2.8135 74.0157" stroke="#F5F7FB" stroke-width="1.25746" stroke-linecap="round"/>
<path d="M42.7258 91.8115C40.4234 79.0744 29.1303 58.7073 2.37732 79.1356" stroke="#F5F7FB" stroke-width="1.01492" stroke-linecap="round"/>
<path d="M37.889 96.5079C36.0467 85.0383 26.271 66.5644 1.90661 84.4252" stroke="#F5F7FB" stroke-width="0.772386" stroke-linecap="round"/>
</g>
<g opacity="0.1">
<path d="M29.266 -19.1692C25.2412 -4.09998 27.1045 23.9017 66.7561 15.3542" stroke="#F5F7FB" stroke-width="1.5" stroke-linecap="round"/>
<path d="M35.7226 -21.1035C31.7711 -7.39099 32.9742 18.2568 69.3986 11.1479" stroke="#F5F7FB" stroke-width="1.25746" stroke-linecap="round"/>
<path d="M42.1792 -23.0399C38.3525 -10.6749 38.9884 12.6049 72.1455 6.80469" stroke="#F5F7FB" stroke-width="1.01492" stroke-linecap="round"/>
<path d="M48.6359 -24.9782C44.985 -13.9503 45.1467 6.95 75.0008 2.32774" stroke="#F5F7FB" stroke-width="0.772386" stroke-linecap="round"/>
</g>
</g>
<g clip-path="url(#clip0_33439_4515)">
<path d="M47.7291 25.7171V48.2372C47.7288 48.4279 47.7988 48.6239 47.9255 48.7867C48.0522 48.9494 48.2263 49.0671 48.4135 49.1165C48.6007 49.1659 48.7876 49.1435 48.9372 49.0536C49.0868 48.9638 49.1883 48.8131 49.2218 48.6311L49.2339 48.4958V27.8842L51.1148 28.2074C51.7756 28.3209 52.4123 28.6825 52.8985 29.2203C53.3846 29.758 53.6846 30.4327 53.739 31.1103L53.7481 31.3317V49.6531C53.7481 50.9206 53.2702 52.0579 52.4123 52.8318C51.5545 53.6056 50.3817 53.9574 49.1345 53.8148L48.8577 53.7749L22.5248 49.2501C21.2757 49.0355 20.0739 48.3441 19.1659 47.3176C18.258 46.2911 17.7127 45.0075 17.642 43.7299L17.6345 43.4477V20.5459C17.6345 19.8754 17.883 19.272 18.3307 18.8557C18.7783 18.4394 19.3924 18.2404 20.0511 18.2984L20.2677 18.3265L45.0958 22.5928C45.7567 22.7063 46.3934 23.0679 46.8795 23.6057C47.3657 24.1434 47.6657 24.8181 47.7201 25.4957L47.7291 25.7171ZM29.2916 33.6243L25.5343 32.9786C24.8734 32.8651 24.2368 33.0079 23.7506 33.3786C23.2645 33.7493 22.9644 34.3208 22.9101 34.9797L22.901 35.198V39.0089C22.9011 39.6795 23.1496 40.3682 23.5972 40.9384C24.0449 41.5086 24.659 41.9185 25.3176 42.0869L25.5343 42.1333L29.2916 42.7789C29.9527 42.8924 30.5896 42.7495 31.0758 42.3785C31.562 42.0075 31.8619 41.4355 31.9159 40.7763L31.9234 40.5592V36.7484C31.9238 36.0776 31.6754 35.3885 31.2277 34.818C30.78 34.2475 30.1657 33.8373 29.5068 33.6689L29.2916 33.6243ZM41.334 42.558L36.0674 41.653L35.914 41.6373C35.6438 41.6286 35.3963 41.7217 35.2171 41.8995C35.0379 42.0772 34.9392 42.3276 34.9392 42.6042C34.9392 42.8809 35.0379 43.1652 35.2171 43.4045C35.3963 43.6438 35.6438 43.822 35.914 43.9061L36.0674 43.9432L41.334 44.8481L41.4875 44.8638C41.7576 44.8725 42.0051 44.7794 42.1843 44.6017C42.3635 44.4239 42.4622 44.1736 42.4622 43.8969C42.4622 43.6203 42.3635 43.336 42.1843 43.0967C42.0051 42.8573 41.7576 42.6791 41.4875 42.595L41.334 42.558ZM25.5343 35.2688L29.2916 35.9145C29.3762 35.929 29.4582 35.9721 29.5246 36.0367C29.5909 36.1013 29.6377 36.1836 29.6573 36.2704L29.6678 36.3608V40.1716C29.6677 40.2576 29.6389 40.3361 29.5862 40.3944C29.5335 40.4527 29.4599 40.4873 29.3774 40.4928L29.2916 40.4887L25.5343 39.8431C25.4496 39.8284 25.3673 39.7851 25.301 39.7202C25.2346 39.6553 25.188 39.5726 25.1687 39.4856L25.1581 39.3967V35.5859C25.1579 35.4996 25.1865 35.4207 25.2393 35.3621C25.292 35.3035 25.3658 35.2687 25.4485 35.2632L25.5343 35.2688ZM41.334 35.6935L36.0674 34.7886L35.914 34.7714C35.6427 34.7612 35.3937 34.8537 35.2134 35.0315C35.0331 35.2093 34.9337 35.4604 34.9337 35.7381C34.9337 36.0157 35.0331 36.301 35.2134 36.5408C35.3937 36.7806 35.6427 36.9586 35.914 37.0417L36.0674 37.0787L41.334 37.9837L41.4875 37.9994C41.7587 38.0095 42.0077 37.9171 42.188 37.7392C42.3684 37.5614 42.4678 37.3103 42.4678 37.0327C42.4678 36.755 42.3684 36.4698 42.188 36.23C42.0077 35.9902 41.7587 35.8121 41.4875 35.7291L41.334 35.6935ZM41.334 28.8123L24.0296 25.8389L23.8761 25.8232C23.606 25.8145 23.3584 25.9076 23.1793 26.0853C23.0001 26.2631 22.9014 26.5134 22.9014 26.7901C22.9014 27.0667 23.0001 27.351 23.1793 27.5903C23.3584 27.8297 23.606 28.0079 23.8761 28.092L24.0296 28.129L41.334 31.1025L41.4875 31.1182C41.7576 31.1269 42.0051 31.0337 42.1843 30.856C42.3635 30.6783 42.4622 30.4279 42.4622 30.1513C42.4622 29.8746 42.3635 29.5903 42.1843 29.351C42.0051 29.1117 41.7576 28.9335 41.4875 28.8494L41.334 28.8123Z" fill="white"/>
</g>
<defs>
<clipPath id="clip0_33439_4515">
<rect width="42.75" height="42.75" fill="white" transform="matrix(0.985556 0.16935 0 1 14.625 11.25)"/>
</clipPath>
</defs>
</svg>
