<svg width="24" height="24" viewBox="0 0 24 24" fill="none" xmlns="http://www.w3.org/2000/svg">
<mask id="mask0_28_2426" style="mask-type:luminance" maskUnits="userSpaceOnUse" x="8" y="2" width="15" height="20">
<path fill-rule="evenodd" clip-rule="evenodd" d="M8.79407 21.9996L8.79407 2L22.5381 2L22.5381 21.9996L8.79407 21.9996Z" fill="white"/>
</mask>
<g mask="url(#mask0_28_2426)">
<path fill-rule="evenodd" clip-rule="evenodd" d="M22.5381 6.4346L22.5381 17.5646C22.5381 20.0096 20.5491 21.9996 18.1031 21.9996L13.2281 21.9996C10.7831 21.9996 8.79407 20.0096 8.79407 17.5646L8.79407 16.6316C8.79407 16.2176 9.13007 15.8816 9.54407 15.8816C9.95807 15.8816 10.2941 16.2176 10.2941 16.6316L10.2941 17.5646C10.2941 19.1836 11.6101 20.4996 13.2281 20.4996L18.1031 20.4996C19.7221 20.4996 21.0381 19.1836 21.0381 17.5646L21.0381 6.4346C21.0381 4.8166 19.7221 3.4996 18.1031 3.4996L13.2191 3.4996C11.6061 3.4996 10.2941 4.8116 10.2941 6.4236L10.2941 7.3666C10.2941 7.7806 9.95807 8.1166 9.54407 8.1166C9.13007 8.1166 8.79407 7.7806 8.79407 7.3666L8.79407 6.4236C8.79407 3.9846 10.7791 1.9996 13.2191 1.9996L18.1031 1.9996C20.5491 1.9996 22.5381 3.9896 22.5381 6.4346Z" fill="black"/>
</g>
<mask id="mask1_28_2426" style="mask-type:luminance" maskUnits="userSpaceOnUse" x="2" y="11" width="14" height="2">
<path fill-rule="evenodd" clip-rule="evenodd" d="M2.00012 12.75L2.00012 11.25L15.541 11.25L15.541 12.75L2.00012 12.75Z" fill="white"/>
</mask>
<g mask="url(#mask1_28_2426)">
<path fill-rule="evenodd" clip-rule="evenodd" d="M15.541 12C15.541 12.414 15.205 12.75 14.791 12.75L2.75 12.75C2.336 12.75 2 12.414 2 12C2 11.586 2.336 11.25 2.75 11.25L14.791 11.25C15.205 11.25 15.541 11.586 15.541 12Z" fill="black"/>
</g>
<path fill-rule="evenodd" clip-rule="evenodd" d="M6.42877 14.915C6.42877 15.106 6.35577 15.298 6.20977 15.444C5.91777 15.737 5.44377 15.739 5.14977 15.446L2.22177 12.531C1.93877 12.25 1.93877 11.75 2.22177 11.469L5.14977 8.55301C5.44377 8.26101 5.91777 8.26201 6.20977 8.55501C6.50177 8.84901 6.50177 9.32301 6.20777 9.61501L3.81377 12L6.20777 14.384C6.35577 14.53 6.42877 14.723 6.42877 14.915Z" fill="black"/>
</svg>
